<?xml version="1.0" encoding="UTF-8"?>
<svg width="200" height="49" viewBox="0 0 200 49" xmlns="http://www.w3.org/2000/svg">
  <path d="M38.1,17.6l-8.4,16.7h-3l-8.4-16.7h3.3l6.6,13.1l6.6-13.1H38.1z M39.4,34.3V17.6h3.1v16.7H39.4z M45.4,34.3V17.6h3.1v16.7
  H45.4z M61.2,34.3l-8.4-16.7h3.3l6.6,13.1l6.6-13.1h3.3l-8.4,16.7H61.2z M76.8,34.3l-8.4-16.7h3.3l6.6,13.1l6.6-13.1h3.3l-8.4,16.7
  H76.8z M98.2,34.7c-1.5,0-2.9-0.3-4.2-0.8c-1.3-0.6-2.3-1.3-3.2-2.3c-0.9-0.9-1.6-2-2.1-3.3c-0.5-1.2-0.7-2.5-0.7-3.9
  c0-1.4,0.2-2.7,0.7-3.9c0.5-1.2,1.2-2.3,2.1-3.3c0.9-0.9,2-1.7,3.2-2.3c1.3-0.6,2.7-0.8,4.2-0.8c1.5,0,2.9,0.3,4.2,0.8
  c1.3,0.6,2.4,1.3,3.2,2.3c0.9,0.9,1.6,2,2.1,3.3c0.5,1.2,0.7,2.5,0.7,3.9c0,1.4-0.2,2.7-0.7,3.9c-0.5,1.2-1.2,2.3-2.1,3.3
  c-0.9,0.9-2,1.7-3.2,2.3C101.1,34.4,99.7,34.7,98.2,34.7z M98.2,31.8c1,0,1.9-0.2,2.7-0.6c0.8-0.4,1.5-0.9,2.1-1.6
  c0.6-0.7,1-1.5,1.3-2.3c0.3-0.9,0.5-1.8,0.5-2.8c0-1-0.2-1.9-0.5-2.8c-0.3-0.9-0.7-1.6-1.3-2.3c-0.6-0.7-1.2-1.2-2.1-1.6
  c-0.8-0.4-1.7-0.6-2.7-0.6c-1,0-1.9,0.2-2.7,0.6c-0.8,0.4-1.5,0.9-2.1,1.6c-0.6,0.7-1,1.5-1.3,2.3c-0.3,0.9-0.5,1.8-0.5,2.8
  c0,1,0.2,1.9,0.5,2.8c0.3,0.9,0.7,1.6,1.3,2.3c0.6,0.7,1.2,1.2,2.1,1.6C96.3,31.6,97.2,31.8,98.2,31.8z M116.5,34.3V17.6h2.9v2.6
  c0.5-0.9,1.2-1.5,2.1-2c0.9-0.5,1.9-0.7,3-0.7c1.3,0,2.4,0.3,3.4,0.9c1,0.6,1.7,1.4,2.2,2.4c0.6-1,1.4-1.8,2.4-2.4
  c1-0.6,2.2-0.9,3.4-0.9c1.1,0,2,0.2,2.9,0.5c0.9,0.3,1.6,0.8,2.2,1.4c0.6,0.6,1,1.3,1.3,2.2c0.3,0.8,0.5,1.8,0.5,2.8v9.8h-3v-9.4
  c0-0.6-0.1-1.2-0.3-1.7c-0.2-0.5-0.4-1-0.8-1.4c-0.3-0.4-0.8-0.7-1.3-0.9c-0.5-0.2-1.1-0.3-1.7-0.3c-0.6,0-1.2,0.1-1.8,0.3
  c-0.5,0.2-1,0.5-1.4,0.9c-0.4,0.4-0.7,0.8-0.9,1.4c-0.2,0.5-0.3,1.1-0.3,1.8v9.3h-3v-9.4c0-0.6-0.1-1.2-0.3-1.7s-0.4-1-0.8-1.4
  c-0.3-0.4-0.8-0.7-1.3-0.9c-0.5-0.2-1.1-0.3-1.7-0.3c-0.6,0-1.2,0.1-1.8,0.3c-0.5,0.2-1,0.5-1.4,0.9c-0.4,0.4-0.7,0.8-0.9,1.4
  c-0.2,0.5-0.3,1.1-0.3,1.8v9.3H116.5z M151.3,34.7c-1.5,0-2.9-0.3-4.2-0.8c-1.3-0.6-2.3-1.3-3.2-2.3c-0.9-0.9-1.6-2-2.1-3.3
  c-0.5-1.2-0.7-2.5-0.7-3.9c0-1.4,0.2-2.7,0.7-3.9c0.5-1.2,1.2-2.3,2.1-3.3c0.9-0.9,2-1.7,3.2-2.3c1.3-0.6,2.7-0.8,4.2-0.8
  c1.5,0,2.9,0.3,4.2,0.8c1.3,0.6,2.4,1.3,3.2,2.3c0.9,0.9,1.6,2,2.1,3.3c0.5,1.2,0.7,2.5,0.7,3.9c0,1.4-0.2,2.7-0.7,3.9
  c-0.5,1.2-1.2,2.3-2.1,3.3c-0.9,0.9-2,1.7-3.2,2.3C154.2,34.4,152.8,34.7,151.3,34.7z M151.3,31.8c1,0,1.9-0.2,2.7-0.6
  c0.8-0.4,1.5-0.9,2.1-1.6c0.6-0.7,1-1.5,1.3-2.3c0.3-0.9,0.5-1.8,0.5-2.8c0-1-0.2-1.9-0.5-2.8c-0.3-0.9-0.7-1.6-1.3-2.3
  c-0.6-0.7-1.2-1.2-2.1-1.6c-0.8-0.4-1.7-0.6-2.7-0.6c-1,0-1.9,0.2-2.7,0.6c-0.8,0.4-1.5,0.9-2.1,1.6c-0.6,0.7-1,1.5-1.3,2.3
  c-0.3,0.9-0.5,1.8-0.5,2.8c0,1,0.2,1.9,0.5,2.8c0.3,0.9,0.7,1.6,1.3,2.3c0.6,0.7,1.2,1.2,2.1,1.6C149.4,31.6,150.3,31.8,151.3,31.8z
   M169.8,34.3V17.6h2.9v2.7c0.5-0.9,1.3-1.6,2.1-2.1c0.9-0.5,1.8-0.8,2.9-0.8c0.3,0,0.5,0,0.8,0.1c0.3,0,0.5,0.1,0.7,0.2v2.9
  c-0.3-0.1-0.5-0.2-0.8-0.3c-0.3-0.1-0.6-0.1-0.9-0.1c-0.7,0-1.4,0.2-2,0.5c-0.6,0.3-1.1,0.7-1.6,1.3c-0.4,0.5-0.8,1.2-1,1.9
  c-0.2,0.7-0.4,1.5-0.4,2.3v8.2H169.8z M190,14.5h3.1v3.2H190V14.5z M190,34.3V17.6h3.1v16.7H190z" fill="#222222"/>
</svg>
