<?xml version="1.0" encoding="UTF-8"?>
<svg width="200" height="49" viewBox="0 0 200 49" xmlns="http://www.w3.org/2000/svg">
  <path d="M80.2,21.8h-18v-6.3h18V21.8z M62.2,32.1c0-5.7,3.2-8.3,7.3-8.3c4.2,0,6.8,2.5,6.8,7.4c0,0.6-0.1,1.2-0.1,1.7
  H69.8c0.2,1.7,1.4,2.6,3.5,2.6c1.4,0,2.8-0.5,3.9-1.4l2.3,4c-1.9,1.6-4.6,2.5-7.1,2.5C65.5,40.5,62.2,37.8,62.2,32.1z M69.9,29.9
  h0.1c-0.1-1.4-0.9-2.4-2.5-2.4c-1.5,0-2.4,0.9-2.5,2.4H69.9z M92.9,40.1h-6.3v-2.1c-1.1,1.5-2.8,2.5-5.1,2.5c-4.5,0-7.9-3.9-7.9-8.9
  c0-5,3.4-8.9,7.9-8.9c2.2,0,3.9,0.9,5.1,2.3v-1.9h6.3V40.1z M81.3,31.6c0,1.9,1.1,3.3,3,3.3c1.4,0,2.4-0.7,2.9-1.7V30
  c-0.5-1-1.4-1.7-2.9-1.7C82.4,28.3,81.3,29.8,81.3,31.6z M131.5,40.1h-6.3V31c0-1.5-0.6-2.1-1.7-2.1c-1.2,0-2,0.9-2.5,1.7v9.5h-6.3
  v-16.9h6.3v2.1c1-1.4,2.8-2.5,5.4-2.5c3.2,0,5.1,1.7,5.1,5.3V40.1z M133.3,32.1c0-5.7,3.2-8.3,7.3-8.3c4.2,0,6.8,2.5,6.8,7.4
  c0,0.6-0.1,1.2-0.1,1.7h-6.5c0.2,1.7,1.4,2.6,3.5,2.6c1.4,0,2.8-0.5,3.9-1.4l2.3,4c-1.9,1.6-4.6,2.5-7.1,2.5
  C136.6,40.5,133.3,37.8,133.3,32.1z M141,29.9h0.1c-0.1-1.4-0.9-2.4-2.5-2.4c-1.5,0-2.4,0.9-2.5,2.4H141z M108.1,40.1h-6.3v-2.1
  c-1.1,1.5-2.8,2.5-5.1,2.5c-4.5,0-7.9-3.9-7.9-8.9c0-5,3.4-8.9,7.9-8.9c2.2,0,3.9,0.9,5.1,2.3v-9.4h6.3V40.1z M96.5,31.6
  c0,1.9,1.1,3.3,3,3.3c1.4,0,2.4-0.7,2.9-1.7V30c-0.5-1-1.4-1.7-2.9-1.7C97.6,28.3,96.5,29.8,96.5,31.6z" fill="#1769ff"/>
</svg>
