<?xml version="1.0" encoding="UTF-8"?>
<svg width="800px" height="600px" viewBox="0 0 800 600" version="1.1" xmlns="http://www.w3.org/2000/svg" xmlns:xlink="http://www.w3.org/1999/xlink">
    <title>Collaboration Illustration</title>
    <defs>
        <linearGradient x1="0%" y1="0%" x2="100%" y2="100%" id="purpleBlueGradient">
            <stop stop-color="#8B5CF6" offset="0%"></stop>
            <stop stop-color="#3B82F6" offset="100%"></stop>
        </linearGradient>
        <linearGradient x1="0%" y1="0%" x2="100%" y2="100%" id="lightGradient">
            <stop stop-color="#EEF2FF" offset="0%"></stop>
            <stop stop-color="#DBEAFE" offset="100%"></stop>
        </linearGradient>
    </defs>
    <g stroke="none" stroke-width="1" fill="none" fill-rule="evenodd">
        <!-- Background elements -->
        <circle fill="#EEF2FF" cx="400" cy="300" r="200" opacity="0.5"></circle>
        <circle fill="#DBEAFE" cx="350" cy="250" r="150" opacity="0.3"></circle>
        
        <!-- Main illustration elements -->
        <g transform="translate(200, 150)">
            <!-- Person 1 -->
            <g transform="translate(0, 40)">
                <!-- Head -->
                <circle fill="#F9A8D4" cx="80" cy="60" r="40"></circle>
                <circle fill="#FFFFFF" cx="70" cy="50" r="12"></circle>
                <circle fill="#1E293B" cx="70" cy="50" r="6"></circle>
                <circle fill="#FFFFFF" cx="100" cy="50" r="12"></circle>
                <circle fill="#1E293B" cx="100" cy="50" r="6"></circle>
                <path d="M75,80 Q90,90 105,80" stroke="#1E293B" stroke-width="3" stroke-linecap="round"></path>
                
                <!-- Body -->
                <path d="M80,100 L80,200" stroke="#8B5CF6" stroke-width="10" stroke-linecap="round"></path>
                <path d="M80,120 L40,160" stroke="#8B5CF6" stroke-width="8" stroke-linecap="round"></path>
                <path d="M80,120 L120,160" stroke="#8B5CF6" stroke-width="8" stroke-linecap="round"></path>
                <path d="M80,200 L50,260" stroke="#8B5CF6" stroke-width="8" stroke-linecap="round"></path>
                <path d="M80,200 L110,260" stroke="#8B5CF6" stroke-width="8" stroke-linecap="round"></path>
            </g>
            
            <!-- Person 2 -->
            <g transform="translate(240, 40)">
                <!-- Head -->
                <circle fill="#93C5FD" cx="80" cy="60" r="40"></circle>
                <circle fill="#FFFFFF" cx="70" cy="50" r="12"></circle>
                <circle fill="#1E293B" cx="70" cy="50" r="6"></circle>
                <circle fill="#FFFFFF" cx="100" cy="50" r="12"></circle>
                <circle fill="#1E293B" cx="100" cy="50" r="6"></circle>
                <path d="M75,80 Q90,90 105,80" stroke="#1E293B" stroke-width="3" stroke-linecap="round"></path>
                
                <!-- Body -->
                <path d="M80,100 L80,200" stroke="#3B82F6" stroke-width="10" stroke-linecap="round"></path>
                <path d="M80,120 L40,160" stroke="#3B82F6" stroke-width="8" stroke-linecap="round"></path>
                <path d="M80,120 L120,160" stroke="#3B82F6" stroke-width="8" stroke-linecap="round"></path>
                <path d="M80,200 L50,260" stroke="#3B82F6" stroke-width="8" stroke-linecap="round"></path>
                <path d="M80,200 L110,260" stroke="#3B82F6" stroke-width="8" stroke-linecap="round"></path>
            </g>
            
            <!-- Connection between people -->
            <path d="M120,180 Q200,140 280,180" stroke="url(#purpleBlueGradient)" stroke-width="5" stroke-linecap="round" stroke-dasharray="10,10"></path>
            
            <!-- Thought bubbles -->
            <g transform="translate(30, 0)">
                <circle fill="#FFFFFF" cx="80" cy="30" r="25" stroke="#8B5CF6" stroke-width="2"></circle>
                <circle fill="#FFFFFF" cx="60" cy="15" r="15" stroke="#8B5CF6" stroke-width="2"></circle>
                <circle fill="#FFFFFF" cx="45" cy="5" r="5" stroke="#8B5CF6" stroke-width="2"></circle>
                
                <!-- Message icon -->
                <rect fill="#8B5CF6" x="70" y="20" width="20" height="15" rx="2"></rect>
                <path d="M70,20 L80,28 L90,20" stroke="#FFFFFF" stroke-width="2" stroke-linecap="round"></path>
            </g>
            
            <g transform="translate(270, 0)">
                <circle fill="#FFFFFF" cx="80" cy="30" r="25" stroke="#3B82F6" stroke-width="2"></circle>
                <circle fill="#FFFFFF" cx="100" cy="15" r="15" stroke="#3B82F6" stroke-width="2"></circle>
                <circle fill="#FFFFFF" cx="115" cy="5" r="5" stroke="#3B82F6" stroke-width="2"></circle>
                
                <!-- Lightbulb icon -->
                <path d="M80,20 L80,25" stroke="#3B82F6" stroke-width="2" stroke-linecap="round"></path>
                <path d="M80,25 Q70,40 80,40 Q90,40 80,25" fill="#3B82F6"></path>
            </g>
        </g>
        
        <!-- Decorative elements -->
        <circle fill="#8B5CF6" cx="150" cy="150" r="8" opacity="0.5"></circle>
        <circle fill="#3B82F6" cx="650" cy="450" r="10" opacity="0.5"></circle>
        <circle fill="#8B5CF6" cx="700" cy="200" r="6" opacity="0.5"></circle>
        <circle fill="#3B82F6" cx="100" cy="400" r="12" opacity="0.5"></circle>
        
        <!-- Abstract shapes -->
        <path d="M600,100 Q650,150 600,200 Q550,150 600,100" fill="url(#lightGradient)" opacity="0.7"></path>
        <path d="M200,400 Q250,450 200,500 Q150,450 200,400" fill="url(#lightGradient)" opacity="0.7"></path>
    </g>
</svg>
