<?xml version="1.0" encoding="UTF-8"?>
<svg width="200" height="49" viewBox="0 0 200 49" xmlns="http://www.w3.org/2000/svg">
  <path d="M47.1,24.5c0,12.9-10.5,23.4-23.4,23.4C10.7,48,0.2,37.5,0.2,24.5C0.2,11.6,10.7,1.1,23.6,1.1C36.6,1.1,47.1,11.6,47.1,24.5z
   M39.4,24.5c0-8.8-7.1-15.9-15.9-15.9c-8.8,0-15.9,7.1-15.9,15.9c0,8.8,7.1,15.9,15.9,15.9C32.3,40.5,39.4,33.3,39.4,24.5z M27.1,10.9
  c3.2,4,5.1,8.3,5.8,12.7c-0.8-0.2-1.7-0.3-2.6-0.3c-1.1,0-2.6,0.1-4.4,0.4c-0.2-0.5-0.4-0.9-0.6-1.4c-0.6-1.2-1.1-2.4-1.8-3.5
  C24.8,16.6,26.1,14,27.1,10.9z M23.6,8.4c-0.9,2.6-2.3,5-4.2,7.3c-3.1-1.5-5.6-3.5-7.6-5.7C14.9,8.2,19,7.5,23.6,8.4z M8.5,14.1
  c2.5,2.5,5.6,4.7,9.1,6.3c-1.6,2.9-2.9,6-3.7,9.3c-3.2-1.7-5.7-4.2-7.2-7.2C6,19.7,6.7,16.7,8.5,14.1z M10.6,31.5
  c1.2,2.2,3.1,4.1,5.4,5.5c-3.3,1.2-7,1.6-10.6,1.1C6.2,35.6,7.9,33.3,10.6,31.5z M15.9,37.7c5.9,2.5,10.8,1.6,16.5-2.8
  c0.2,3.5-0.4,6.5-1.6,9.2C25.9,45.8,20.1,43.4,15.9,37.7z M35.5,31.1c1.9-2.8,3-6.1,3.3-9.8c1.7,1.1,3.2,2.4,4.3,3.9
  C42.3,28.3,39.3,30.4,35.5,31.1z" fill="#ea4c89"/>
  <path d="M63.9,19.4h4.3l6.5,16.9h-4.2l-1.3-3.7h-6.2l-1.3,3.7h-4.2L63.9,19.4z M68.1,29.2l-1.9-5.5l-1.9,5.5H68.1z M77.3,36.2V19.4
  h4.2v16.9H77.3z M95.7,36.2v-2.1c-1.1,1.5-2.6,2.3-4.5,2.3c-1.8,0-3.3-0.6-4.5-1.9c-1.2-1.3-1.8-2.9-1.8-4.8s0.6-3.5,1.8-4.8
  c1.2-1.3,2.7-1.9,4.5-1.9c1.9,0,3.4,0.8,4.5,2.3v-2.1h4.2v12.8H95.7z M87.9,29.8c0,0.8,0.3,1.5,0.8,2.1s1.3,0.9,2.1,0.9
  c0.9,0,1.6-0.3,2.1-0.9c0.6-0.6,0.8-1.3,0.8-2.1c0-0.8-0.3-1.5-0.8-2.1c-0.6-0.6-1.3-0.9-2.1-0.9c-0.8,0-1.5,0.3-2.1,0.9
  C88.1,28.3,87.9,29,87.9,29.8z M110.8,25.8c-0.9,0-1.6,0.3-2.1,0.9c-0.6,0.6-0.8,1.3-0.8,2.1c0,0.8,0.3,1.5,0.8,2.1s1.3,0.9,2.1,0.9
  c0.9,0,1.6-0.3,2.2-0.9c0.6-0.6,0.9-1.3,0.9-2.1c0-0.8-0.3-1.5-0.9-2.1C112.5,26.1,111.7,25.8,110.8,25.8z M113.1,36.2v-2.1
  c-1.1,1.5-2.6,2.3-4.5,2.3c-1.8,0-3.3-0.6-4.5-1.9c-1.2-1.3-1.8-2.9-1.8-4.8s0.6-3.5,1.8-4.8c1.2-1.3,2.7-1.9,4.5-1.9
  c1.9,0,3.4,0.8,4.5,2.3v-2.1h4.2v12.8H113.1z M119.6,36.2V19.4h4.2v16.9H119.6z M126.4,36.2V19.4h10.7v3.7h-6.6v2.7h5.7v3.7h-5.7v2.9
  h6.8v3.7H126.4z" fill="#333333"/>
  <path d="M160.5,19.4h3.9v16.9h-3.5l-6.9-9.4v9.4H150V19.4h3.5l6.9,9.4V19.4z M166.8,25.8h3.6v2.7h0.1c0.1-0.3,0.3-0.7,0.6-1
  c0.3-0.3,0.6-0.7,1-1c0.4-0.3,0.8-0.6,1.3-0.8c0.5-0.2,1-0.3,1.5-0.3c0.3,0,0.6,0,0.7,0.1c0.2,0,0.3,0.1,0.5,0.1v3.6
  c-0.3-0.1-0.6-0.2-0.9-0.2c-0.3,0-0.6-0.1-0.9-0.1c-0.6,0-1.1,0.1-1.6,0.3c-0.5,0.2-0.9,0.5-1.2,0.9s-0.6,0.8-0.8,1.4s-0.3,1.2-0.3,1.9
  v3h-3.6V25.8z M179.5,22.5v-3.1h3.6v3.1H179.5z M179.5,36.2V25.8h3.6v10.5H179.5z M185.1,36.2V19.4h3.6v16.9H185.1z M190.3,29.7
  c0-0.9,0.2-1.8,0.5-2.6c0.3-0.8,0.8-1.5,1.3-2.1c0.6-0.6,1.2-1.1,2-1.4c0.8-0.3,1.6-0.5,2.5-0.5c0.9,0,1.7,0.2,2.5,0.5
  c0.8,0.3,1.4,0.8,2,1.4c0.6,0.6,1,1.3,1.3,2.1c0.3,0.8,0.5,1.7,0.5,2.6c0,0.9-0.2,1.8-0.5,2.6c-0.3,0.8-0.8,1.5-1.3,2.1
  c-0.6,0.6-1.2,1.1-2,1.4s-1.6,0.5-2.5,0.5c-0.9,0-1.7-0.2-2.5-0.5s-1.4-0.8-2-1.4c-0.6-0.6-1-1.3-1.3-2.1
  C190.5,31.5,190.3,30.6,190.3,29.7z M193.9,29.7c0,1,0.3,1.7,0.8,2.3c0.5,0.6,1.2,0.9,2,0.9c0.8,0,1.5-0.3,2-0.9
  c0.5-0.6,0.8-1.4,0.8-2.3c0-1-0.3-1.7-0.8-2.3c-0.5-0.6-1.2-0.9-2-0.9c-0.8,0-1.5,0.3-2,0.9C194.2,28,193.9,28.7,193.9,29.7z" fill="#333333"/>
</svg>
