<svg width="47" height="47" viewBox="0 0 47 47" fill="none" xmlns="http://www.w3.org/2000/svg">
<rect width="7" height="7" fill="#062A6C"/>
<rect y="10" width="7" height="7" fill="#062A6C"/>
<rect y="20" width="7" height="7" fill="#062A6C"/>
<rect y="30" width="7" height="7" fill="#062A6C"/>
<rect y="40" width="7" height="7" fill="#062A6C"/>
<rect x="10" width="7" height="7" fill="#062A6C"/>
<rect x="20" width="7" height="7" fill="#062A6C"/>
<rect x="20" y="10" width="7" height="7" fill="#062A6C"/>
<rect x="10" y="20" width="7" height="7" fill="#062A6C"/>
<rect x="20" y="20" width="7" height="7" fill="#062A6C"/>
<rect x="30" y="20" width="7" height="7" fill="#062A6C"/>
<rect x="20" y="30" width="7" height="7" fill="#062A6C"/>
<rect x="10" y="40" width="7" height="7" fill="#062A6C"/>
<rect x="20" y="40" width="7" height="7" fill="#062A6C"/>
<rect x="30" y="40" width="7" height="7" fill="#062A6C"/>
<rect x="30" width="7" height="7" fill="#062A6C"/>
<rect x="40" width="7" height="7" fill="#062A6C"/>
<rect x="40" y="10" width="7" height="7" fill="#062A6C"/>
<rect x="40" y="20" width="7" height="7" fill="#062A6C"/>
<rect x="40" y="30" width="7" height="7" fill="#062A6C"/>
<rect x="40" y="40" width="7" height="7" fill="#062A6C"/>
</svg>
