<svg width="233" height="60" viewBox="0 0 233 60" fill="none" xmlns="http://www.w3.org/2000/svg">
<g clip-path="url(#clip0_8356_66291)">
<path d="M9.52906 23.0998C14.7918 23.0998 19.0581 18.6674 19.0581 13.1998C19.0581 7.73219 14.7918 3.2998 9.52906 3.2998C4.26631 3.2998 0 7.73219 0 13.1998C0 18.6674 4.26631 23.0998 9.52906 23.0998Z" fill="black"/>
<path d="M28.4119 42.7199C33.6746 42.7199 37.9409 38.2875 37.9409 32.8199C37.9409 27.3523 33.6746 22.9199 28.4119 22.9199C23.1491 22.9199 18.8828 27.3523 18.8828 32.8199C18.8828 38.2875 23.1491 42.7199 28.4119 42.7199Z" fill="black"/>
<path d="M18.9576 26.2948C20.7119 26.2948 22.134 24.8174 22.134 22.9948C22.134 21.1723 20.7119 19.6948 18.9576 19.6948C17.2034 19.6948 15.7812 21.1723 15.7812 22.9948C15.7812 24.8174 17.2034 26.2948 18.9576 26.2948Z" fill="black"/>
<path d="M18.7857 6.6C20.54 6.6 21.9621 5.12254 21.9621 3.3C21.9621 1.47746 20.54 0 18.7857 0C17.0315 0 15.6094 1.47746 15.6094 3.3C15.6094 5.12254 17.0315 6.6 18.7857 6.6Z" fill="black"/>
<path d="M18.7857 46.0199C20.54 46.0199 21.9621 44.5425 21.9621 42.7199C21.9621 40.8974 20.54 39.4199 18.7857 39.4199C17.0315 39.4199 15.6094 40.8974 15.6094 42.7199C15.6094 44.5425 17.0315 46.0199 18.7857 46.0199Z" fill="black"/>
<path d="M64.598 23.5798C64.2023 22.7769 63.646 22.0711 62.9665 21.5098C62.2925 20.9697 61.555 20.5211 60.7719 20.1748C60.0644 19.8598 59.227 19.5298 58.2308 19.1998L56.787 18.6898L55.8341 18.3598C55.0855 18.0769 54.369 17.7097 53.6973 17.2648C53.1137 16.8837 52.6203 16.371 52.2535 15.7648C51.8317 15.0912 51.6107 14.3033 51.6182 13.4998C51.6155 12.8365 51.7382 12.179 51.9792 11.5648C52.2326 10.9464 52.6005 10.3858 53.062 9.91478C53.5716 9.39965 54.1894 9.01454 54.8668 8.78978C55.6745 8.49997 56.5245 8.35787 57.379 8.36978C59.0113 8.35028 60.6326 8.65052 62.1579 9.25478C62.1579 10.1848 62.259 10.9048 62.2734 11.4748C62.2879 12.0448 62.3456 12.7048 62.3456 12.8248C62.3456 13.8598 62.952 14.0698 63.4285 14.0698H64.6413V7.82978H64.4825C62.258 6.78179 59.85 6.22016 57.4078 6.17978C56.2206 6.1487 55.0389 6.35757 53.9283 6.79478C52.981 7.15724 52.1159 7.71896 51.3872 8.44478C50.712 9.12928 50.1724 9.94465 49.799 10.8448C49.4551 11.7525 49.2788 12.7193 49.2793 13.6948C49.2429 14.7811 49.4557 15.8608 49.9001 16.8448C50.2852 17.659 50.843 18.3719 51.5316 18.9298C52.192 19.4904 52.9324 19.9408 53.7262 20.2648C54.4336 20.5798 55.271 20.9098 56.2672 21.2398L57.5089 21.6598L58.7361 22.0798C59.4857 22.3378 60.1956 22.7066 60.8441 23.1748C61.4298 23.553 61.9239 24.0662 62.2879 24.6748C62.6689 25.3778 62.8492 26.1791 62.8076 26.9848C62.8245 27.8316 62.6772 28.6733 62.3745 29.4598C62.0911 30.1988 61.669 30.8718 61.1328 31.4398C60.5436 32.021 59.8458 32.4702 59.0826 32.7598C58.1995 33.0911 57.2634 33.2438 56.325 33.2098C54.5697 33.261 52.8235 32.9288 51.1995 32.2348C51.1848 32 51.1848 31.7645 51.1995 31.5298C51.1995 31.2498 51.1995 30.9498 51.1995 30.6298C51.1995 30.3598 51.1995 30.0898 51.1995 29.8348C51.1995 29.5798 51.1995 29.2648 51.1995 29.0398C51.1995 28.8148 51.1995 28.4248 51.1995 28.3348C51.1273 27.2698 50.4632 27.1048 50.0878 27.1048H48.875V33.8398H49.0338C51.3306 34.875 53.807 35.411 56.3106 35.4148C57.5951 35.4219 58.8708 35.1934 60.0789 34.7398C61.1241 34.3094 62.0763 33.6669 62.8798 32.8498C63.6392 32.0302 64.2331 31.0612 64.6268 29.9998C65.0123 28.899 65.2078 27.7362 65.2043 26.5648C65.2338 25.5338 65.0259 24.5105 64.598 23.5798Z" fill="black"/>
<path d="M79.6963 32.2802C79.6342 32.208 79.5588 32.1495 79.4744 32.1083C79.3901 32.067 79.2986 32.0439 79.2054 32.0402C78.9857 32.0581 78.7801 32.1596 78.6279 32.3252C78.5016 32.446 78.3665 32.5564 78.2237 32.6552L78.1081 32.7302C77.8404 32.9022 77.5605 33.0526 77.2707 33.1802C76.9392 33.3104 76.585 33.3666 76.2312 33.3452C75.8955 33.34 75.5633 33.274 75.2494 33.1502C74.9809 33.0424 74.7391 32.8733 74.542 32.6552C74.3248 32.4074 74.1491 32.1234 74.0222 31.8152C73.8958 31.4034 73.8372 30.9723 73.8489 30.5402V16.8302H79.8551V14.8202H73.8056V7.83024H72.6506C72.5558 7.82809 72.4616 7.84706 72.3745 7.88587C72.2873 7.92468 72.2092 7.98243 72.1453 8.05524C72.015 8.18719 71.9333 8.3623 71.9143 8.55024L71.4667 14.8052L68.2037 15.0002V15.9902C68.1998 16.0876 68.2158 16.1848 68.2506 16.2752C68.2855 16.3657 68.3384 16.4475 68.4058 16.5152C68.5608 16.6591 68.7611 16.7391 68.9689 16.7402H71.4234V30.5252C71.3754 31.1796 71.4528 31.8373 71.6511 32.4604C71.8493 33.0834 72.1645 33.6595 72.5784 34.1552C73.0074 34.5745 73.5141 34.8986 74.0677 35.1075C74.6213 35.3164 75.2101 35.4058 75.7981 35.3702C76.644 35.3601 77.4791 35.1713 78.2525 34.8152C78.982 34.5067 79.6375 34.0356 80.1728 33.4352L80.3172 33.2702L79.6963 32.2802Z" fill="black"/>
<path d="M97.0496 14.7749V15.8099C97.0496 16.3949 97.4106 16.7549 98.0892 16.7999H98.3202C98.3961 16.819 98.4753 16.819 98.5512 16.7999H99.6196L93.9455 30.7499L93.7867 31.1699C93.7867 31.1699 93.7867 31.1699 93.7867 31.0799C93.7607 30.9656 93.722 30.8548 93.6711 30.7499L87.896 16.8299C87.982 16.8447 88.0698 16.8447 88.1558 16.8299C88.5745 16.8299 88.9211 16.8299 89.1232 16.8299H89.513C90.1627 16.8299 90.5237 16.4099 90.5237 15.8399V14.7749H83.3047V15.8099C83.3047 16.3949 83.6656 16.7549 84.3442 16.7999H85.2971L92.6027 34.0499L89.0654 41.9999H90.7836C90.9187 42.0095 91.0543 41.9891 91.1813 41.9399C91.3083 41.8908 91.4237 41.8141 91.5199 41.7149C91.6738 41.5735 91.7968 41.3996 91.8808 41.2049L102.088 16.7699H102.579H102.94H103.215C103.879 16.7699 104.24 16.3499 104.24 15.7799V14.7749H97.0496Z" fill="black"/>
<path d="M112.743 33.0001H112.252C112.205 33.0161 112.154 33.0161 112.107 33.0001H111.299H111.039V5.58008H105.899V6.67508C105.899 7.26008 106.26 7.60508 106.939 7.66508H107.978C108.108 7.65124 108.238 7.65124 108.368 7.66508H108.613V33.0001H108.281C108.142 33.0131 108.002 33.0131 107.863 33.0001H106.838C106.173 33.0001 105.812 33.4201 105.812 33.9901V35.0701H113.768V33.9901C113.782 33.4201 113.421 33.0001 112.743 33.0001Z" fill="black"/>
<path d="M132.483 19.6051C132.144 18.5436 131.587 17.5712 130.851 16.7551C130.155 15.9915 129.308 15.3929 128.368 15.0001C127.391 14.5892 126.347 14.3803 125.293 14.3851C124.008 14.3739 122.734 14.6394 121.553 15.1651C120.488 15.6315 119.54 16.3446 118.781 17.2501C118.006 18.1941 117.413 19.2838 117.034 20.4601C116.62 21.7621 116.406 23.1238 116.399 24.4951C116.387 26.047 116.611 27.591 117.063 29.0701C117.435 30.3166 118.049 31.4705 118.868 32.4601C119.665 33.3896 120.651 34.1225 121.755 34.6051C122.924 35.0966 124.177 35.3365 125.437 35.3101C126.174 35.3217 126.909 35.2513 127.632 35.1001C128.318 34.9425 128.993 34.7371 129.653 34.4851C130.263 34.2574 130.844 33.9553 131.386 33.5851C131.865 33.2544 132.298 32.8555 132.671 32.4001L132.815 32.2051L132.194 31.4101C132.125 31.3091 132.035 31.2265 131.929 31.1691C131.824 31.1118 131.707 31.0812 131.588 31.0801C131.29 31.1098 131.011 31.2418 130.794 31.4551C130.446 31.7364 130.074 31.9825 129.682 32.1901C129.221 32.4472 128.737 32.6582 128.238 32.8201L128.05 32.8951C127.276 33.1528 126.466 33.2745 125.654 33.2551C124.649 33.2836 123.65 33.0893 122.723 32.6851C121.904 32.3237 121.181 31.7629 120.615 31.0501C119.995 30.2409 119.534 29.3134 119.258 28.3201C118.913 27.0725 118.752 25.7778 118.781 24.4801H132.237C132.356 24.4864 132.473 24.4589 132.578 24.4008C132.682 24.3426 132.769 24.2559 132.829 24.1501C132.964 23.9251 133.034 23.665 133.031 23.4001C133.049 22.1125 132.863 20.8306 132.483 19.6051ZM130.866 22.6051H118.911C119.021 21.77 119.235 20.9532 119.546 20.1751C119.862 19.4138 120.307 18.7178 120.86 18.1201C121.419 17.565 122.076 17.127 122.795 16.8301C123.605 16.508 124.469 16.3551 125.336 16.3801C126.113 16.3668 126.885 16.52 127.603 16.8301C128.273 17.1076 128.871 17.5442 129.35 18.1051C129.853 18.685 130.241 19.3632 130.49 20.1001C130.726 20.9284 130.853 21.7863 130.866 22.6501V22.6051Z" fill="black"/>
<path d="M159.138 14.775V15.81C159.138 16.395 159.498 16.755 160.177 16.8H160.408C160.479 16.8178 160.553 16.8178 160.625 16.8H161.707L157.376 30.945C157.314 31.127 157.261 31.3123 157.217 31.5C157.217 31.32 157.102 31.155 157.058 30.96L152.034 15.3C151.994 15.1136 151.893 14.9475 151.748 14.8298C151.603 14.7122 151.424 14.6504 151.24 14.655H150.475C150.291 14.6504 150.111 14.7122 149.967 14.8298C149.822 14.9475 149.721 15.1136 149.681 15.3L144.598 31.005C144.525 31.2012 144.462 31.4015 144.411 31.605C144.396 31.4819 144.367 31.3611 144.324 31.245V31.035L139.993 16.89H140.282H141.263H141.494C142.13 16.89 142.505 16.455 142.505 15.9V14.775H138.477H137.033H135.344V15.81C135.344 16.17 135.474 16.725 136.34 16.8H136.788C136.878 16.8172 136.971 16.8172 137.062 16.8H137.408L143.299 35.04H144.743C144.916 35.0331 145.081 34.9655 145.212 34.8484C145.343 34.7313 145.432 34.5715 145.465 34.395L150.72 18.345L156.019 34.5C156.063 34.6732 156.157 34.8281 156.289 34.9435C156.421 35.0589 156.584 35.1293 156.755 35.145H158.286L164.148 16.905H164.667H165.028H165.303C165.433 16.9132 165.564 16.8937 165.687 16.8478C165.81 16.8018 165.923 16.7305 166.019 16.6379C166.115 16.5454 166.192 16.4336 166.245 16.3093C166.298 16.1851 166.326 16.0509 166.328 15.915V14.775H159.138Z" fill="black"/>
<path d="M184.964 20.6251C184.599 19.3999 183.995 18.2662 183.188 17.2951C182.424 16.3788 181.465 15.6599 180.387 15.1951C179.193 14.6801 177.912 14.415 176.619 14.415C175.326 14.415 174.045 14.6801 172.851 15.1951C171.735 15.674 170.739 16.4126 169.94 17.354C169.142 18.2953 168.562 19.4143 168.245 20.6251C167.83 22.0095 167.616 23.4502 167.61 24.9001C167.599 26.3513 167.813 27.7948 168.245 29.1751C168.588 30.3991 169.184 31.5306 169.992 32.4901C170.798 33.3981 171.783 34.1145 172.88 34.5901C174.079 35.1018 175.366 35.352 176.662 35.325C177.949 35.3509 179.227 35.1007 180.416 34.5901C181.496 34.1292 182.456 33.4096 183.217 32.4901C184.014 31.5174 184.617 30.3908 184.993 29.1751C185.404 27.7909 185.604 26.3484 185.585 24.9001C185.59 23.4504 185.381 22.0086 184.964 20.6251ZM176.619 33.3001C175.629 33.3213 174.645 33.1271 173.731 32.7301C172.929 32.3549 172.229 31.7774 171.696 31.0501C171.135 30.2646 170.728 29.3728 170.497 28.4251C170.198 27.2869 170.057 26.1099 170.079 24.9301C170.056 23.7551 170.197 22.5829 170.497 21.4501C170.723 20.4955 171.13 19.5978 171.696 18.8101C172.229 18.0748 172.928 17.4874 173.731 17.1001C174.646 16.7055 175.63 16.5164 176.619 16.5451C177.609 16.5117 178.594 16.7011 179.507 17.1001C180.31 17.495 181.012 18.0808 181.557 18.8101C182.131 19.5922 182.54 20.4919 182.755 21.4501C183.032 22.5976 183.168 23.777 183.159 24.9601C183.167 26.143 183.031 27.3222 182.755 28.4701C182.534 29.426 182.126 30.3245 181.557 31.1101C181.01 31.8262 180.308 32.3969 179.507 32.7751C178.585 33.141 177.605 33.3193 176.619 33.3001Z" fill="black"/>
<path d="M202.22 15.1948C201.768 14.9291 201.282 14.7321 200.776 14.6098C200.242 14.4771 199.694 14.4067 199.145 14.3998C197.7 14.3504 196.288 14.8519 195.174 15.8098C194.324 16.5879 193.628 17.5304 193.124 18.5848L193.023 15.5848C193.025 15.3386 192.943 15.0997 192.792 14.9098C192.702 14.8272 192.597 14.7647 192.482 14.726C192.368 14.6873 192.248 14.6733 192.128 14.6848H188.143V15.7348C188.133 15.8707 188.153 16.0072 188.2 16.1342C188.248 16.2612 188.322 16.3756 188.417 16.4691C188.513 16.5625 188.627 16.6326 188.752 16.6743C188.877 16.7159 189.009 16.7281 189.139 16.7098C189.341 16.7098 189.572 16.7098 190.886 16.7848V32.9998C189.572 32.9998 189.341 32.9998 189.11 32.9998C188.983 32.9935 188.856 33.0147 188.737 33.0621C188.617 33.1094 188.509 33.1818 188.418 33.2748C188.327 33.3678 188.256 33.4794 188.209 33.6024C188.161 33.7255 188.139 33.8574 188.143 33.9898V35.0848H195.983V33.9898C195.983 33.0748 195.261 33.0298 194.987 32.9998H193.24V21.9898C193.679 20.5467 194.424 19.2243 195.42 18.1198C195.869 17.6801 196.398 17.3371 196.975 17.1106C197.552 16.884 198.167 16.7784 198.784 16.7998C199.145 16.7998 199.477 16.7998 199.78 16.8748C200.034 16.8975 200.285 16.9427 200.531 17.0098L200.776 17.0998C200.862 17.1502 200.954 17.1857 201.051 17.2048H201.166H201.455C201.611 17.2182 201.766 17.1701 201.889 17.07C202.012 16.9699 202.094 16.8252 202.119 16.6648L202.379 15.1648L202.22 15.1948Z" fill="black"/>
<path d="M221.35 33H220.556C220.465 33.0157 220.372 33.0157 220.282 33H220.036L212.63 24.66L212.427 24.42C212.364 24.3277 212.291 24.2423 212.211 24.165C212.141 24.0911 212.064 24.0257 211.98 23.97L212.052 23.88C212.103 23.8177 212.161 23.7622 212.225 23.715L212.427 23.52L219.17 16.875H219.459H220.022H220.498C221.365 16.8 221.48 16.215 221.48 15.885V14.685H215.041V15.765C215.041 16.35 215.402 16.71 216.08 16.755H216.369L210.247 22.755C210.141 22.8871 210.001 22.9858 209.843 23.04C209.699 23.0626 209.553 23.0626 209.41 23.04H208.803V5.625H203.577V6.675C203.577 7.26 203.938 7.605 204.616 7.665H205.67C205.795 7.65063 205.921 7.65063 206.046 7.665H206.306V33H205.916C205.772 33.0135 205.627 33.0135 205.483 33H204.573C204.443 32.9918 204.313 33.0113 204.191 33.0574C204.068 33.1035 203.956 33.1751 203.862 33.2679C203.767 33.3606 203.692 33.4726 203.64 33.5968C203.589 33.721 203.562 33.8548 203.563 33.99V35.07H211.446V33.99C211.446 33.39 211.085 33.045 210.406 33H209.901C209.858 33.0138 209.813 33.0138 209.771 33H208.962H208.702V25.05H209.352C209.606 25.0311 209.86 25.0616 210.103 25.14C210.303 25.2537 210.479 25.4065 210.623 25.59L218.578 34.5C218.717 34.667 218.889 34.8002 219.083 34.89C219.258 34.9974 219.458 35.0496 219.661 35.04H222.346V33.96C222.346 33.42 222 33 221.35 33Z" fill="black"/>
<path d="M224.906 8.5V5.70313H223.862V5.32892H226.375V5.70313H225.326V8.5H224.906ZM226.795 8.5V5.32892H227.426L228.177 7.5742C228.246 7.7833 228.297 7.93976 228.328 8.04359C228.364 7.92822 228.421 7.75878 228.497 7.53526L229.256 5.32892H229.821V8.5H229.416V5.84589L228.495 8.5H228.116L227.199 5.80047V8.5H226.795Z" fill="black"/>
</g>
<defs>
<clipPath id="clip0_8356_66291">
<rect width="233" height="60" fill="white"/>
</clipPath>
</defs>
</svg>
